<svg xmlns="http://www.w3.org/2000/svg"
    xmlns:xlink="http://www.w3.org/1999/xlink" zoomAndPan="magnify" preserveAspectRatio="xMidYMid meet" version="1.0" viewBox="36.83 165.41 303.3 30.59">
    <defs>
        <g/>
    </defs>
    <g fill="#000000" fill-opacity="1">
        <g transform="translate(34.232818, 194.999987)">
            <g>
                <path d="M 6.125 -28.5625 L 26.078125 -28.5625 C 26.660156 -28.5625 27.046875 -28.492188 27.234375 -28.359375 C 27.398438 -28.222656 27.484375 -27.941406 27.484375 -27.515625 C 27.484375 -27.015625 27.296875 -26.765625 26.921875 -26.765625 C 26.734375 -26.765625 26.570312 -26.773438 26.4375 -26.796875 C 26.300781 -26.828125 26.046875 -26.84375 25.671875 -26.84375 C 25.304688 -26.84375 24.800781 -26.851562 24.15625 -26.875 L 21.765625 -27 L 15.59375 -27 L 15.59375 -20.59375 L 23.84375 -20.59375 C 24.15625 -20.59375 24.519531 -20.597656 24.9375 -20.609375 C 25.351562 -20.628906 25.8125 -20.65625 26.3125 -20.6875 L 27.515625 -20.765625 C 27.703125 -20.765625 27.847656 -20.707031 27.953125 -20.59375 C 28.085938 -20.382812 28.15625 -20.160156 28.15625 -19.921875 C 28.15625 -19.492188 28.109375 -19.21875 28.015625 -19.09375 C 27.921875 -18.976562 27.769531 -18.921875 27.5625 -18.921875 C 27.476562 -18.921875 27.394531 -18.929688 27.3125 -18.953125 C 26.945312 -18.984375 26.507812 -19.003906 26 -19.015625 C 25.488281 -19.035156 24.898438 -19.046875 24.234375 -19.046875 L 15.59375 -19.046875 L 15.59375 -3.28125 C 15.59375 -2.21875 15.675781 -1.125 15.84375 0 L 6.125 0 Z M 4.765625 -28.5625 L 4.765625 0 L 2.59375 0 C 2.707031 -0.820312 2.78125 -1.679688 2.8125 -2.578125 C 2.851562 -3.472656 2.875 -4.414062 2.875 -5.40625 L 2.875 -23.203125 C 2.875 -24.191406 2.851562 -25.125 2.8125 -26 C 2.78125 -26.875 2.707031 -27.726562 2.59375 -28.5625 Z M 4.765625 -28.5625 "/>
            </g>
        </g>
    </g>
    <g fill="#000000" fill-opacity="1">
        <g transform="translate(63.109945, 194.999987)">
            <g>
                <path d="M 4.765625 -5.953125 C 4.441406 -6.378906 4.125 -6.90625 3.8125 -7.53125 C 3.507812 -8.164062 3.242188 -8.847656 3.015625 -9.578125 C 2.796875 -10.316406 2.617188 -11.078125 2.484375 -11.859375 C 2.347656 -12.648438 2.28125 -13.429688 2.28125 -14.203125 C 2.28125 -15.722656 2.515625 -17.242188 2.984375 -18.765625 C 3.453125 -20.285156 4.046875 -21.578125 4.765625 -22.640625 Z M 6.125 -24.4375 C 7.238281 -25.582031 8.304688 -26.5 9.328125 -27.1875 C 10.359375 -27.882812 11.597656 -28.460938 13.046875 -28.921875 C 14.554688 -29.367188 16.179688 -29.59375 17.921875 -29.59375 C 20.429688 -29.59375 22.671875 -29.109375 24.640625 -28.140625 C 26.609375 -27.171875 28.316406 -25.925781 29.765625 -24.40625 C 30.453125 -23.625 30.796875 -23.0625 30.796875 -22.71875 C 30.796875 -22.53125 30.675781 -22.34375 30.4375 -22.15625 C 30.144531 -21.894531 29.835938 -21.765625 29.515625 -21.765625 C 29.328125 -21.765625 29.171875 -21.816406 29.046875 -21.921875 C 28.929688 -22.023438 28.753906 -22.304688 28.515625 -22.765625 C 28.203125 -23.378906 27.601562 -24.070312 26.71875 -24.84375 C 25.570312 -25.820312 24.238281 -26.59375 22.71875 -27.15625 C 21.195312 -27.6875 19.554688 -27.953125 17.796875 -27.953125 C 16.890625 -27.953125 16.265625 -27.832031 15.921875 -27.59375 C 15.703125 -27.4375 15.59375 -27.132812 15.59375 -26.6875 L 15.59375 -2.078125 C 15.59375 -1.648438 15.632812 -1.382812 15.71875 -1.28125 C 15.851562 -1.0625 16.050781 -0.90625 16.3125 -0.8125 C 16.582031 -0.726562 17.117188 -0.6875 17.921875 -0.6875 C 18.910156 -0.6875 20.082031 -0.859375 21.4375 -1.203125 C 22.800781 -1.523438 24.109375 -2.082031 25.359375 -2.875 C 25.972656 -3.28125 26.546875 -3.710938 27.078125 -4.171875 C 27.609375 -4.640625 28.085938 -5.144531 28.515625 -5.6875 C 29.453125 -6.769531 30.132812 -7.875 30.5625 -9 C 31.039062 -10.144531 31.398438 -11.492188 31.640625 -13.046875 L 20.6875 -13.046875 C 20.625 -13.046875 20.457031 -13.035156 20.1875 -13.015625 C 19.925781 -13.003906 19.570312 -12.984375 19.125 -12.953125 L 18.515625 -12.953125 C 18.171875 -12.953125 17.9375 -13.007812 17.8125 -13.125 C 17.695312 -13.25 17.640625 -13.488281 17.640625 -13.84375 C 17.640625 -14.375 17.863281 -14.640625 18.3125 -14.640625 L 18.796875 -14.640625 C 18.960938 -14.640625 19.164062 -14.628906 19.40625 -14.609375 C 19.644531 -14.597656 19.921875 -14.59375 20.234375 -14.59375 L 32.71875 -14.59375 C 33.0625 -14.59375 33.265625 -14.550781 33.328125 -14.46875 C 33.398438 -14.394531 33.4375 -14.253906 33.4375 -14.046875 C 33.4375 -11.554688 32.757812 -9.101562 31.40625 -6.6875 C 30.09375 -4.257812 28.171875 -2.363281 25.640625 -1 C 23.128906 0.332031 20.488281 1 17.71875 1 C 15.476562 1 13.367188 0.566406 11.390625 -0.296875 C 9.421875 -1.160156 7.664062 -2.4375 6.125 -4.125 Z M 6.125 -24.4375 "/>
            </g>
        </g>
    </g>
    <g fill="#000000" fill-opacity="1">
        <g transform="translate(98.666415, 194.999987)">
            <g>
                <path d="M 15.59375 -1.5625 L 17.5625 -1.5625 C 18.894531 -1.5625 19.921875 -1.601562 20.640625 -1.6875 C 21.753906 -1.789062 22.710938 -2.015625 23.515625 -2.359375 C 24.691406 -2.816406 25.601562 -3.503906 26.25 -4.421875 C 26.90625 -5.335938 27.234375 -6.34375 27.234375 -7.4375 C 27.234375 -8.34375 26.976562 -9.179688 26.46875 -9.953125 C 25.96875 -10.734375 25.1875 -11.363281 24.125 -11.84375 C 23.320312 -11.625 22.679688 -11.515625 22.203125 -11.515625 C 20.972656 -11.515625 19.972656 -11.78125 19.203125 -12.3125 C 18.796875 -12.582031 18.59375 -13.050781 18.59375 -13.71875 C 18.59375 -14.175781 18.742188 -14.40625 19.046875 -14.40625 C 19.117188 -14.40625 19.300781 -14.320312 19.59375 -14.15625 C 20.207031 -13.757812 20.753906 -13.488281 21.234375 -13.34375 C 21.710938 -13.195312 22.222656 -13.125 22.765625 -13.125 C 24.304688 -13.125 25.613281 -13.695312 26.6875 -14.84375 C 27.769531 -16.007812 28.3125 -17.5 28.3125 -19.3125 C 28.3125 -21.5625 27.445312 -23.429688 25.71875 -24.921875 C 23.988281 -26.410156 21.28125 -27.15625 17.59375 -27.15625 C 17.226562 -27.15625 16.878906 -27.148438 16.546875 -27.140625 C 16.210938 -27.128906 15.894531 -27.109375 15.59375 -27.078125 Z M 6.125 -28.5625 L 18.640625 -28.5625 C 20.421875 -28.5625 21.703125 -28.46875 22.484375 -28.28125 C 23.523438 -28.039062 24.507812 -27.664062 25.4375 -27.15625 C 26.375 -26.65625 27.191406 -26.015625 27.890625 -25.234375 C 28.597656 -24.460938 29.148438 -23.578125 29.546875 -22.578125 C 29.953125 -21.578125 30.15625 -20.476562 30.15625 -19.28125 C 30.15625 -17.757812 29.800781 -16.398438 29.09375 -15.203125 C 28.394531 -14.003906 27.320312 -13.097656 25.875 -12.484375 C 26.863281 -11.953125 27.625 -11.238281 28.15625 -10.34375 C 28.6875 -9.445312 28.953125 -8.4375 28.953125 -7.3125 C 28.953125 -6.332031 28.765625 -5.460938 28.390625 -4.703125 C 28.023438 -3.941406 27.5625 -3.269531 27 -2.6875 C 26.707031 -2.382812 26.414062 -2.117188 26.125 -1.890625 C 25.832031 -1.671875 25.507812 -1.46875 25.15625 -1.28125 C 24.488281 -0.90625 23.625 -0.597656 22.5625 -0.359375 C 21.46875 -0.117188 19.773438 0 17.484375 0 L 6.125 0 Z M 4.765625 -28.5625 L 4.765625 0 L 2.59375 0 C 2.707031 -0.820312 2.78125 -1.679688 2.8125 -2.578125 C 2.851562 -3.472656 2.875 -4.414062 2.875 -5.40625 L 2.875 -23.203125 C 2.875 -24.191406 2.851562 -25.125 2.8125 -26 C 2.78125 -26.875 2.707031 -27.726562 2.59375 -28.5625 Z M 4.765625 -28.5625 "/>
            </g>
        </g>
    </g>
    <g fill="#000000" fill-opacity="1">
        <g transform="translate(146.781632, 194.999987)">
            <g>
                <path d="M 10.953125 -28.5625 L 27.953125 -28.5625 C 28.566406 -28.5625 28.929688 -28.507812 29.046875 -28.40625 C 29.203125 -28.238281 29.28125 -27.957031 29.28125 -27.5625 C 29.28125 -27.03125 29.109375 -26.765625 28.765625 -26.765625 C 28.679688 -26.785156 28.585938 -26.796875 28.484375 -26.796875 C 28.367188 -26.796875 28.238281 -26.796875 28.09375 -26.796875 C 27.945312 -26.796875 27.78125 -26.8125 27.59375 -26.84375 C 26.851562 -26.894531 25.914062 -26.941406 24.78125 -26.984375 C 23.644531 -27.023438 22.28125 -27.046875 20.6875 -27.046875 C 20.625 -25.679688 20.570312 -24.625 20.53125 -23.875 C 20.5 -23.132812 20.484375 -22.679688 20.484375 -22.515625 L 20.484375 -6 L 20.59375 -3.234375 C 20.625 -2.460938 20.648438 -1.800781 20.671875 -1.25 C 20.703125 -0.707031 20.742188 -0.289062 20.796875 0 L 10.953125 0 Z M 9.640625 -28.5625 L 9.640625 0 L 7.4375 0 C 7.539062 -0.820312 7.613281 -1.679688 7.65625 -2.578125 C 7.695312 -3.472656 7.71875 -4.414062 7.71875 -5.40625 L 7.71875 -23.203125 C 7.71875 -24.429688 7.675781 -25.710938 7.59375 -27.046875 C 5.8125 -27.046875 4.347656 -27.023438 3.203125 -26.984375 C 2.054688 -26.941406 1.21875 -26.894531 0.6875 -26.84375 C 0.46875 -26.8125 0.273438 -26.789062 0.109375 -26.78125 C -0.046875 -26.769531 -0.175781 -26.765625 -0.28125 -26.765625 C -0.46875 -26.765625 -0.597656 -26.816406 -0.671875 -26.921875 C -0.753906 -27.023438 -0.796875 -27.28125 -0.796875 -27.6875 C -0.796875 -28 -0.71875 -28.222656 -0.5625 -28.359375 C -0.425781 -28.492188 -0.222656 -28.5625 0.046875 -28.5625 Z M 9.640625 -28.5625 "/>
            </g>
        </g>
    </g>
    <g fill="#000000" fill-opacity="1">
        <g transform="translate(174.938833, 194.999987)">
            <g>
                <path d="M 5.234375 0 L 5.234375 -28.5625 L 13.203125 -28.5625 C 13.097656 -27.414062 13.023438 -26.285156 12.984375 -25.171875 C 12.941406 -24.066406 12.90625 -22.957031 12.875 -21.84375 C 13.4375 -21.945312 14.359375 -22.101562 15.640625 -22.3125 C 16.867188 -22.476562 17.945312 -22.5625 18.875 -22.5625 C 19.96875 -22.5625 20.890625 -22.453125 21.640625 -22.234375 C 22.390625 -22.023438 22.992188 -21.734375 23.453125 -21.359375 C 23.921875 -20.984375 24.285156 -20.566406 24.546875 -20.109375 C 24.816406 -19.660156 25.019531 -19.195312 25.15625 -18.71875 C 25.320312 -17.863281 25.40625 -16.582031 25.40625 -14.875 L 25.40625 -5.15625 C 25.40625 -4.945312 25.410156 -4.660156 25.421875 -4.296875 C 25.429688 -3.941406 25.453125 -3.507812 25.484375 -3 C 25.554688 -1.5625 25.59375 -0.800781 25.59375 -0.71875 C 25.59375 0.03125 25.25 0.40625 24.5625 0.40625 C 23.789062 0.40625 23.40625 0.03125 23.40625 -0.71875 C 23.40625 -0.875 23.441406 -1.222656 23.515625 -1.765625 C 23.597656 -2.429688 23.640625 -3.550781 23.640625 -5.125 L 23.640625 -15.203125 C 23.640625 -16.398438 23.597656 -17.226562 23.515625 -17.6875 C 23.441406 -18.1875 23.300781 -18.632812 23.09375 -19.03125 C 22.894531 -19.4375 22.609375 -19.78125 22.234375 -20.0625 C 21.867188 -20.34375 21.378906 -20.546875 20.765625 -20.671875 C 20.148438 -20.804688 19.375 -20.875 18.4375 -20.875 C 18.0625 -20.875 17.632812 -20.851562 17.15625 -20.8125 C 16.675781 -20.78125 16.171875 -20.738281 15.640625 -20.6875 C 15.109375 -20.601562 14.609375 -20.519531 14.140625 -20.4375 C 13.671875 -20.351562 13.25 -20.257812 12.875 -20.15625 L 12.875 -6.484375 C 12.875 -5.285156 12.894531 -4.148438 12.9375 -3.078125 C 12.976562 -2.015625 13.050781 -0.988281 13.15625 0 Z M 3.875 0 L 1.875 0 C 2.007812 -1.09375 2.09375 -2.347656 2.125 -3.765625 C 2.195312 -5.203125 2.234375 -6.109375 2.234375 -6.484375 L 2.234375 -21.875 C 2.234375 -22.0625 2.21875 -22.453125 2.1875 -23.046875 C 2.164062 -23.648438 2.128906 -24.488281 2.078125 -25.5625 C 2.054688 -26.332031 2.03125 -26.96875 2 -27.46875 C 1.96875 -27.976562 1.941406 -28.34375 1.921875 -28.5625 L 3.875 -28.5625 Z M 3.875 0 "/>
            </g>
        </g>
    </g>
    <g fill="#000000" fill-opacity="1">
        <g transform="translate(202.336113, 194.999987)">
            <g>
                <path d="M 2.71875 -4.921875 C 1.570312 -6.785156 1 -8.8125 1 -11 C 1 -13.207031 1.570312 -15.222656 2.71875 -17.046875 Z M 11.71875 -12.046875 L 22.640625 -12.046875 C 22.421875 -13.398438 22.101562 -14.554688 21.6875 -15.515625 C 21.363281 -16.179688 20.914062 -16.847656 20.34375 -17.515625 C 19.769531 -18.179688 19.101562 -18.773438 18.34375 -19.296875 C 17.582031 -19.816406 16.753906 -20.238281 15.859375 -20.5625 C 14.960938 -20.882812 14.023438 -21.046875 13.046875 -21.046875 C 12.878906 -21.046875 12.6875 -21.035156 12.46875 -21.015625 C 12.257812 -21.003906 12.007812 -20.984375 11.71875 -20.953125 Z M 4.078125 -18.84375 C 5.203125 -20.039062 6.503906 -20.960938 7.984375 -21.609375 C 9.460938 -22.265625 11.039062 -22.59375 12.71875 -22.59375 C 14.15625 -22.59375 15.492188 -22.359375 16.734375 -21.890625 C 17.972656 -21.429688 19.085938 -20.785156 20.078125 -19.953125 C 21.066406 -19.128906 21.898438 -18.171875 22.578125 -17.078125 C 23.253906 -15.984375 23.742188 -14.8125 24.046875 -13.5625 C 24.203125 -12.789062 24.28125 -11.773438 24.28125 -10.515625 L 11.71875 -10.515625 L 11.71875 -1 C 11.875 -0.96875 12.007812 -0.953125 12.125 -0.953125 C 12.25 -0.953125 12.367188 -0.953125 12.484375 -0.953125 C 12.984375 -0.953125 13.5625 -1.007812 14.21875 -1.125 C 14.875 -1.25 15.519531 -1.425781 16.15625 -1.65625 C 16.800781 -1.882812 17.398438 -2.164062 17.953125 -2.5 C 18.515625 -2.832031 18.984375 -3.195312 19.359375 -3.59375 C 19.703125 -3.945312 20.128906 -4.507812 20.640625 -5.28125 C 20.984375 -5.789062 21.238281 -6.125 21.40625 -6.28125 C 21.613281 -6.414062 21.828125 -6.484375 22.046875 -6.484375 C 22.359375 -6.484375 22.644531 -6.367188 22.90625 -6.140625 C 23.175781 -5.910156 23.3125 -5.664062 23.3125 -5.40625 C 23.3125 -4.570312 22.367188 -3.453125 20.484375 -2.046875 C 18.109375 -0.285156 15.441406 0.59375 12.484375 0.59375 C 11.066406 0.59375 9.8125 0.378906 8.71875 -0.046875 C 7.625 -0.472656 6.570312 -1.054688 5.5625 -1.796875 C 5.132812 -2.117188 4.640625 -2.570312 4.078125 -3.15625 Z M 4.078125 -18.84375 "/>
            </g>
        </g>
    </g>
    <g fill="#000000" fill-opacity="1">
        <g transform="translate(227.493624, 194.999987)">
            <g>
                <path d="M 17.4375 0 L 17.4375 -22.59375 C 18.90625 -22.40625 20.148438 -22.09375 21.171875 -21.65625 C 22.203125 -21.21875 23.066406 -20.625 23.765625 -19.875 C 24.242188 -19.34375 24.601562 -18.675781 24.84375 -17.875 C 24.976562 -17.289062 25.046875 -16.476562 25.046875 -15.4375 L 25.046875 -5 C 25.046875 -3.289062 25.242188 -1.625 25.640625 0 Z M 14.484375 -15.3125 C 14.242188 -15.34375 14.007812 -15.363281 13.78125 -15.375 C 13.550781 -15.394531 13.332031 -15.40625 13.125 -15.40625 C 11.125 -15.40625 9.519531 -15.191406 8.3125 -14.765625 C 7.488281 -14.492188 6.648438 -14.039062 5.796875 -13.40625 C 4.972656 -12.789062 4.320312 -12.046875 3.84375 -11.171875 C 3.363281 -10.304688 3.125 -9.273438 3.125 -8.078125 C 3.125 -6.960938 3.347656 -6.007812 3.796875 -5.21875 C 4.253906 -4.4375 4.851562 -3.710938 5.59375 -3.046875 C 6.34375 -2.398438 7.222656 -1.90625 8.234375 -1.5625 C 9.253906 -1.21875 10.40625 -1.046875 11.6875 -1.046875 C 12.53125 -1.046875 13.460938 -1.164062 14.484375 -1.40625 Z M 16.125 -0.078125 C 15.050781 0.109375 14.113281 0.25 13.3125 0.34375 C 12.519531 0.4375 11.84375 0.484375 11.28125 0.484375 C 9.863281 0.503906 8.539062 0.273438 7.3125 -0.203125 C 6.09375 -0.679688 5.039062 -1.328125 4.15625 -2.140625 C 3.28125 -2.953125 2.601562 -3.890625 2.125 -4.953125 C 1.644531 -6.023438 1.429688 -7.144531 1.484375 -8.3125 C 1.484375 -10.101562 1.988281 -11.664062 3 -13 C 4.007812 -14.332031 5.488281 -15.347656 7.4375 -16.046875 C 9.039062 -16.578125 10.628906 -16.84375 12.203125 -16.84375 L 14.484375 -16.796875 C 14.484375 -18.367188 14.441406 -19.34375 14.359375 -19.71875 C 14.253906 -20.09375 14.054688 -20.382812 13.765625 -20.59375 C 13.285156 -20.914062 12.59375 -21.078125 11.6875 -21.078125 C 10.75 -21.078125 9.875 -20.957031 9.0625 -20.71875 C 8.25 -20.476562 7.519531 -20.171875 6.875 -19.796875 C 6.71875 -19.722656 6.539062 -19.59375 6.34375 -19.40625 C 6.144531 -19.21875 5.9375 -19.03125 5.71875 -18.84375 C 5.507812 -18.65625 5.300781 -18.472656 5.09375 -18.296875 C 4.894531 -18.128906 4.726562 -18.003906 4.59375 -17.921875 C 4.332031 -17.785156 4.117188 -17.71875 3.953125 -17.71875 C 3.660156 -17.71875 3.398438 -17.832031 3.171875 -18.0625 C 2.953125 -18.289062 2.84375 -18.550781 2.84375 -18.84375 C 2.84375 -19.476562 3.398438 -20.117188 4.515625 -20.765625 C 6.972656 -22.097656 10.160156 -22.765625 14.078125 -22.765625 C 14.453125 -22.765625 14.8125 -22.753906 15.15625 -22.734375 C 15.507812 -22.722656 15.832031 -22.707031 16.125 -22.6875 Z M 16.125 -0.078125 "/>
            </g>
        </g>
    </g>
    <g fill="#000000" fill-opacity="1">
        <g transform="translate(254.890915, 194.999987)">
            <g>
                <path d="M 3.046875 -22.234375 L 3.046875 -24.046875 L 4.71875 -24.765625 L 4.71875 -1.765625 C 4.34375 -2.109375 4.015625 -2.617188 3.734375 -3.296875 C 3.453125 -3.972656 3.257812 -4.675781 3.15625 -5.40625 C 3.082031 -6.144531 3.046875 -7.488281 3.046875 -9.4375 L 3.046875 -20.796875 L 1.921875 -20.796875 C 1.785156 -20.796875 1.625 -20.789062 1.4375 -20.78125 C 1.25 -20.769531 1.050781 -20.75 0.84375 -20.71875 L 0.40625 -20.71875 C 0.132812 -20.71875 -0.0820312 -20.789062 -0.25 -20.9375 C -0.425781 -21.082031 -0.515625 -21.273438 -0.515625 -21.515625 C -0.515625 -21.753906 -0.425781 -21.953125 -0.25 -22.109375 C -0.0820312 -22.273438 0.132812 -22.359375 0.40625 -22.359375 L 0.765625 -22.359375 L 1.59375 -22.3125 Z M 6.046875 -25.40625 L 14.125 -29.15625 C 14.007812 -27.800781 13.921875 -26.550781 13.859375 -25.40625 C 13.796875 -24.257812 13.75 -23.175781 13.71875 -22.15625 L 17.484375 -22.3125 C 17.910156 -22.3125 18.195312 -22.25 18.34375 -22.125 C 18.488281 -22.007812 18.5625 -21.832031 18.5625 -21.59375 C 18.5625 -21.25 18.46875 -21.003906 18.28125 -20.859375 C 18.09375 -20.710938 17.734375 -20.640625 17.203125 -20.640625 L 13.71875 -20.796875 L 13.71875 -7.078125 C 13.71875 -4.835938 13.851562 -3.460938 14.125 -2.953125 C 14.363281 -2.421875 14.800781 -2.15625 15.4375 -2.15625 C 15.863281 -2.15625 16.25 -2.253906 16.59375 -2.453125 C 16.945312 -2.660156 17.320312 -2.988281 17.71875 -3.4375 C 18.113281 -3.945312 18.394531 -4.363281 18.5625 -4.6875 C 18.820312 -5.269531 19.007812 -5.613281 19.125 -5.71875 C 19.3125 -5.851562 19.507812 -5.921875 19.71875 -5.921875 C 19.9375 -5.921875 20.125 -5.847656 20.28125 -5.703125 C 20.4375 -5.554688 20.515625 -5.363281 20.515625 -5.125 C 20.515625 -4.507812 20.195312 -3.828125 19.5625 -3.078125 C 18.675781 -1.960938 17.476562 -1.0625 15.96875 -0.375 C 14.46875 0.300781 12.828125 0.640625 11.046875 0.640625 C 9.097656 0.640625 7.429688 0.238281 6.046875 -0.5625 Z M 6.046875 -25.40625 "/>
            </g>
        </g>
    </g>
    <g fill="#000000" fill-opacity="1">
        <g transform="translate(274.129004, 194.999987)">
            <g>
                <path d="M 2.71875 -4.921875 C 1.570312 -6.785156 1 -8.8125 1 -11 C 1 -13.207031 1.570312 -15.222656 2.71875 -17.046875 Z M 11.71875 -12.046875 L 22.640625 -12.046875 C 22.421875 -13.398438 22.101562 -14.554688 21.6875 -15.515625 C 21.363281 -16.179688 20.914062 -16.847656 20.34375 -17.515625 C 19.769531 -18.179688 19.101562 -18.773438 18.34375 -19.296875 C 17.582031 -19.816406 16.753906 -20.238281 15.859375 -20.5625 C 14.960938 -20.882812 14.023438 -21.046875 13.046875 -21.046875 C 12.878906 -21.046875 12.6875 -21.035156 12.46875 -21.015625 C 12.257812 -21.003906 12.007812 -20.984375 11.71875 -20.953125 Z M 4.078125 -18.84375 C 5.203125 -20.039062 6.503906 -20.960938 7.984375 -21.609375 C 9.460938 -22.265625 11.039062 -22.59375 12.71875 -22.59375 C 14.15625 -22.59375 15.492188 -22.359375 16.734375 -21.890625 C 17.972656 -21.429688 19.085938 -20.785156 20.078125 -19.953125 C 21.066406 -19.128906 21.898438 -18.171875 22.578125 -17.078125 C 23.253906 -15.984375 23.742188 -14.8125 24.046875 -13.5625 C 24.203125 -12.789062 24.28125 -11.773438 24.28125 -10.515625 L 11.71875 -10.515625 L 11.71875 -1 C 11.875 -0.96875 12.007812 -0.953125 12.125 -0.953125 C 12.25 -0.953125 12.367188 -0.953125 12.484375 -0.953125 C 12.984375 -0.953125 13.5625 -1.007812 14.21875 -1.125 C 14.875 -1.25 15.519531 -1.425781 16.15625 -1.65625 C 16.800781 -1.882812 17.398438 -2.164062 17.953125 -2.5 C 18.515625 -2.832031 18.984375 -3.195312 19.359375 -3.59375 C 19.703125 -3.945312 20.128906 -4.507812 20.640625 -5.28125 C 20.984375 -5.789062 21.238281 -6.125 21.40625 -6.28125 C 21.613281 -6.414062 21.828125 -6.484375 22.046875 -6.484375 C 22.359375 -6.484375 22.644531 -6.367188 22.90625 -6.140625 C 23.175781 -5.910156 23.3125 -5.664062 23.3125 -5.40625 C 23.3125 -4.570312 22.367188 -3.453125 20.484375 -2.046875 C 18.109375 -0.285156 15.441406 0.59375 12.484375 0.59375 C 11.066406 0.59375 9.8125 0.378906 8.71875 -0.046875 C 7.625 -0.472656 6.570312 -1.054688 5.5625 -1.796875 C 5.132812 -2.117188 4.640625 -2.570312 4.078125 -3.15625 Z M 4.078125 -18.84375 "/>
            </g>
        </g>
    </g>
    <g fill="#000000" fill-opacity="1">
        <g transform="translate(299.286504, 194.999987)">
            <g>
                <path d="M 3.875 0 L 1.875 0 C 2.007812 -1.09375 2.09375 -2.347656 2.125 -3.765625 C 2.195312 -5.203125 2.234375 -6.109375 2.234375 -6.484375 L 2.234375 -15.15625 C 2.234375 -15.34375 2.21875 -15.742188 2.1875 -16.359375 C 2.164062 -16.972656 2.128906 -17.800781 2.078125 -18.84375 C 2.054688 -19.613281 2.03125 -20.25 2 -20.75 C 1.96875 -21.257812 1.941406 -21.625 1.921875 -21.84375 L 3.875 -21.84375 Z M 5.234375 0 L 5.234375 -21.84375 L 13.203125 -21.84375 C 13.097656 -20.71875 13.015625 -19.289062 12.953125 -17.5625 C 13.648438 -18.25 14.242188 -18.835938 14.734375 -19.328125 C 15.234375 -19.828125 15.65625 -20.222656 16 -20.515625 C 16.664062 -21.078125 17.398438 -21.523438 18.203125 -21.859375 C 19.003906 -22.191406 19.832031 -22.359375 20.6875 -22.359375 C 21.375 -22.359375 21.921875 -22.171875 22.328125 -21.796875 C 22.742188 -21.421875 22.953125 -20.992188 22.953125 -20.515625 C 22.953125 -20.085938 22.828125 -19.738281 22.578125 -19.46875 C 22.328125 -19.207031 21.988281 -19.078125 21.5625 -19.078125 C 21.132812 -19.078125 20.640625 -19.210938 20.078125 -19.484375 C 19.597656 -19.691406 19.222656 -19.796875 18.953125 -19.796875 C 18.160156 -19.796875 17.347656 -19.4375 16.515625 -18.71875 C 15.160156 -17.65625 13.945312 -16.347656 12.875 -14.796875 L 12.875 -6.484375 C 12.875 -5.285156 12.894531 -4.148438 12.9375 -3.078125 C 12.976562 -2.015625 13.050781 -0.988281 13.15625 0 Z M 5.234375 0 "/>
            </g>
        </g>
    </g>
    <g fill="#000000" fill-opacity="1">
        <g transform="translate(320.764385, 194.999987)">
            <g>
                <path d="M 1.875 -17.515625 C 1.875 -16.691406 2.179688 -15.734375 2.796875 -14.640625 C 3.648438 -13.117188 4.742188 -11.570312 6.078125 -10 L 9.953125 -5.5625 C 11.472656 -3.800781 12.234375 -2.382812 12.234375 -1.3125 C 12.234375 -0.675781 12.039062 -0.191406 11.65625 0.140625 C 11.269531 0.472656 10.597656 0.640625 9.640625 0.640625 C 8.390625 0.640625 7.003906 0.410156 5.484375 -0.046875 C 4.648438 -0.304688 3.804688 -0.6875 2.953125 -1.1875 C 2.109375 -1.695312 1.507812 -2.164062 1.15625 -2.59375 C 1 -2.78125 0.921875 -3.019531 0.921875 -3.3125 C 0.921875 -3.5625 1.015625 -3.769531 1.203125 -3.9375 C 1.390625 -4.113281 1.601562 -4.203125 1.84375 -4.203125 C 2.03125 -4.203125 2.21875 -4.148438 2.40625 -4.046875 C 2.507812 -3.984375 2.679688 -3.859375 2.921875 -3.671875 C 3.160156 -3.492188 3.46875 -3.226562 3.84375 -2.875 C 5.488281 -1.519531 7.3125 -0.84375 9.3125 -0.84375 C 9.769531 -0.84375 10.097656 -0.921875 10.296875 -1.078125 C 10.492188 -1.234375 10.59375 -1.421875 10.59375 -1.640625 C 10.59375 -1.773438 10.53125 -1.945312 10.40625 -2.15625 C 10.238281 -2.445312 9.785156 -3.0625 9.046875 -4 L 3.484375 -10.921875 C 2.765625 -11.828125 2.269531 -12.613281 2 -13.28125 C 1.65625 -14.082031 1.484375 -14.945312 1.484375 -15.875 C 1.484375 -16.539062 1.613281 -17.234375 1.875 -17.953125 Z M 13.046875 0.3125 C 13.390625 -0.03125 13.5625 -0.601562 13.5625 -1.40625 C 13.5625 -2.175781 13.347656 -2.945312 12.921875 -3.71875 C 12.546875 -4.46875 11.640625 -5.601562 10.203125 -7.125 C 8.679688 -8.71875 7.425781 -10.128906 6.4375 -11.359375 C 5.445312 -12.585938 4.703125 -13.628906 4.203125 -14.484375 C 3.429688 -15.867188 3.046875 -17.117188 3.046875 -18.234375 C 3.046875 -19.617188 3.726562 -20.695312 5.09375 -21.46875 C 6.46875 -22.25 8.34375 -22.640625 10.71875 -22.640625 C 12.394531 -22.640625 13.894531 -22.414062 15.21875 -21.96875 C 16.539062 -21.53125 17.492188 -21.0625 18.078125 -20.5625 C 18.398438 -20.269531 18.5625 -19.988281 18.5625 -19.71875 C 18.5625 -19.445312 18.46875 -19.222656 18.28125 -19.046875 C 18.125 -18.878906 17.925781 -18.796875 17.6875 -18.796875 C 17.4375 -18.796875 17.234375 -18.835938 17.078125 -18.921875 C 16.785156 -19.023438 16.1875 -19.382812 15.28125 -20 C 14.695312 -20.375 14.082031 -20.664062 13.4375 -20.875 C 12.800781 -21.09375 12.242188 -21.203125 11.765625 -21.203125 C 11.304688 -21.203125 10.929688 -21.070312 10.640625 -20.8125 C 10.347656 -20.5625 10.203125 -20.273438 10.203125 -19.953125 C 10.203125 -19.609375 10.332031 -19.222656 10.59375 -18.796875 C 10.8125 -18.421875 11.179688 -17.929688 11.703125 -17.328125 C 12.222656 -16.734375 12.882812 -16.007812 13.6875 -15.15625 C 15.601562 -13.15625 16.800781 -11.835938 17.28125 -11.203125 C 18.082031 -10.160156 18.628906 -9.269531 18.921875 -8.53125 C 19.210938 -7.800781 19.359375 -7 19.359375 -6.125 C 19.359375 -4.5 18.90625 -3.21875 18 -2.28125 C 16.820312 -1 15.171875 -0.132812 13.046875 0.3125 Z M 13.046875 0.3125 "/>
            </g>
        </g>
    </g>
</svg>