<svg xmlns="http://www.w3.org/2000/svg" version="1.0" preserveAspectRatio="xMidYMid meet" viewBox="39 136.94 407.87 220.16">

<g transform="translate(0.000000,500.000000) scale(0.100000,-0.100000)" fill="#000000" stroke="none">
<path d="M400 3623 c62 -21 98 -47 118 -82 l22 -39 0 -743 c0 -688 -1 -747 -18 -779 -20 -40 -74 -80 -108 -80 -13 0 -24 -4 -24 -10 0 -6 130 -10 370 -10 240 0 370 4 370 10 0 6 -11 10 -24 10 -33 0 -86 39 -107 80 -18 32 -19 64 -19 404 l0 369 53 -7 c122 -15 251 -111 304 -226 16 -33 31 -60 36 -60 4 0 7 135 7 300 0 165 -4 300 -8 300 -5 0 -19 -25 -31 -55 -47 -114 -174 -214 -294 -233 -31 -5 -59 -7 -62 -4 -3 3 -5 196 -5 430 l0 425 78 -7 c90 -8 192 -41 268 -87 108 -66 221 -205 259 -320 16 -47 16 -50 -8 -111 -53 -133 -73 -292 -57 -440 25 -227 115 -413 271 -564 113 -108 226 -168 372 -198 109 -23 174 -20 352 14 86 17 189 30 228 30 78 0 186 -26 194 -47 8 -20 1059 -19 1154 1 307 66 469 381 324 631 -63 109 -203 203 -339 228 l-70 13 45 17 c66 25 155 101 198 167 54 83 75 168 69 274 -10 159 -100 291 -247 364 l-75 37 -530 2 c-372 1 -521 -1 -496 -9 19 -5 47 -19 63 -30 56 -40 57 -45 57 -553 l0 -465 -355 0 c-323 0 -410 -6 -324 -24 43 -8 84 -40 103 -80 13 -28 16 -74 16 -280 l0 -245 -66 -20 c-85 -27 -179 -29 -228 -6 -96 46 -188 246 -231 505 -23 134 -30 410 -16 552 37 355 152 610 290 645 38 9 174 -13 220 -36 95 -49 106 -115 36 -213 -92 -128 -113 -207 -85 -310 15 -53 90 -131 152 -158 104 -45 233 -12 307 77 120 146 53 354 -165 509 -175 125 -394 172 -599 129 -186 -39 -376 -177 -483 -349 l-37 -60 -3 212 -2 212 -618 -1 c-339 0 -610 -3 -602 -6z m3295 -22 c136 -62 218 -321 170 -543 -27 -128 -82 -224 -152 -265 -33 -19 -58 -25 -111 -26 l-67 -2 -3 428 -2 427 62 0 c39 0 78 -7 103 -19z m65 -872 c81 -36 141 -112 181 -229 29 -86 32 -246 5 -335 -37 -123 -88 -197 -167 -239 -46 -25 -62 -29 -148 -30 l-96 -1 -3 428 -2 427 92 0 c72 0 103 -5 138 -21z m-681 -742 c-6 -15 -27 -41 -46 -57 -64 -56 -63 -59 -63 233 0 253 1 264 23 307 14 27 35 50 57 62 l35 18 3 -267 c2 -184 -1 -277 -9 -296z"/>
<path d="M3414 1726 c-20 -9 -35 -25 -42 -45 -20 -57 13 -103 87 -120 57 -13 77 -31 62 -60 -16 -28 -69 -28 -106 1 -27 21 -28 21 -41 3 -18 -25 -18 -29 7 -51 14 -12 40 -19 83 -22 55 -4 66 -1 91 21 24 20 30 33 30 65 0 54 -24 78 -91 93 -58 13 -80 30 -71 54 10 24 55 30 93 12 32 -16 34 -15 44 3 15 27 13 30 -25 46 -42 17 -80 17 -121 0z"/>
<path d="M1402 1708 c2 -19 10 -24 46 -26 l42 -3 0 -125 0 -124 30 0 30 0 0 125 0 125 45 0 c41 0 45 2 45 25 l0 25 -121 0 c-119 0 -120 0 -117 -22z"/>
<path d="M1690 1580 l0 -150 30 0 30 0 0 70 0 70 65 0 65 0 0 -70 0 -70 30 0 30 0 0 150 0 150 -30 0 c-30 0 -30 -1 -30 -55 l0 -55 -65 0 -65 0 0 55 c0 54 0 55 -30 55 l-30 0 0 -150z"/>
<path d="M2020 1580 l0 -150 105 0 105 0 0 25 c0 24 -2 25 -75 25 l-75 0 0 40 0 40 65 0 c62 0 65 1 65 25 0 23 -4 24 -62 27 -63 3 -63 3 -66 35 l-3 32 73 3 c67 3 73 5 76 26 3 22 2 22 -102 22 l-106 0 0 -150z"/>
<path d="M2303 1580 l-51 -150 32 0 c29 0 34 4 42 33 9 31 11 32 71 35 l62 3 7 -36 c6 -32 9 -35 40 -35 l33 0 -51 150 -52 150 -40 0 -41 0 -52 -150z m115 30 l21 -60 -44 0 -44 0 21 60 c11 33 21 60 23 60 2 0 12 -27 23 -60z"/>
<path d="M2550 1705 c0 -23 4 -25 45 -25 l45 0 0 -125 0 -125 30 0 30 0 0 124 0 125 43 3 c35 2 43 7 45 26 3 22 2 22 -117 22 l-121 0 0 -25z"/>
<path d="M2830 1580 l0 -150 105 0 105 0 0 25 c0 24 -2 25 -75 25 l-75 0 0 40 0 40 65 0 c62 0 65 1 65 25 0 23 -4 24 -62 27 -63 3 -63 3 -66 35 l-3 32 73 3 c67 3 73 5 76 26 3 22 2 22 -102 22 l-106 0 0 -150z"/>
<path d="M3100 1580 l0 -150 30 0 30 0 0 65 c0 62 1 65 24 65 30 0 47 -20 67 -79 14 -40 20 -46 47 -49 l31 -3 -19 57 c-11 32 -27 65 -35 74 -14 16 -13 19 10 34 20 13 25 25 25 56 0 65 -23 80 -125 80 l-85 0 0 -150z m136 102 c39 -26 8 -82 -46 -82 -29 0 -30 2 -30 45 0 44 1 45 33 45 17 0 37 -4 43 -8z"/>
</g>
</svg>