<svg xmlns="http://www.w3.org/2000/svg"
    xmlns:xlink="http://www.w3.org/1999/xlink" zoomAndPan="magnify" preserveAspectRatio="xMidYMid meet" version="1.0" viewBox="138.55 165.93 98.89 50.84">
    <defs>
        <g/>
    </defs>
    <g fill="#000000" fill-opacity="1">
        <g transform="translate(135.749996, 197.744973)">
            <g>
                <path d="M 6.578125 -30.703125 L 28.03125 -30.703125 C 28.664062 -30.703125 29.082031 -30.628906 29.28125 -30.484375 C 29.457031 -30.335938 29.546875 -30.035156 29.546875 -29.578125 C 29.546875 -29.035156 29.34375 -28.765625 28.9375 -28.765625 C 28.738281 -28.765625 28.566406 -28.78125 28.421875 -28.8125 C 28.273438 -28.84375 28 -28.859375 27.59375 -28.859375 C 27.195312 -28.859375 26.65625 -28.867188 25.96875 -28.890625 L 23.390625 -29.03125 L 16.765625 -29.03125 L 16.765625 -22.140625 L 25.625 -22.140625 C 25.96875 -22.140625 26.363281 -22.144531 26.8125 -22.15625 C 27.257812 -22.175781 27.753906 -22.203125 28.296875 -22.234375 L 29.578125 -22.3125 C 29.785156 -22.3125 29.945312 -22.253906 30.0625 -22.140625 C 30.195312 -21.910156 30.265625 -21.664062 30.265625 -21.40625 C 30.265625 -20.945312 30.210938 -20.65625 30.109375 -20.53125 C 30.015625 -20.40625 29.851562 -20.34375 29.625 -20.34375 C 29.539062 -20.34375 29.457031 -20.351562 29.375 -20.375 C 28.96875 -20.40625 28.492188 -20.425781 27.953125 -20.4375 C 27.410156 -20.457031 26.78125 -20.46875 26.0625 -20.46875 L 16.765625 -20.46875 L 16.765625 -3.53125 C 16.765625 -2.382812 16.851562 -1.207031 17.03125 0 L 6.578125 0 Z M 5.109375 -30.703125 L 5.109375 0 L 2.796875 0 C 2.910156 -0.882812 2.988281 -1.804688 3.03125 -2.765625 C 3.070312 -3.734375 3.09375 -4.75 3.09375 -5.8125 L 3.09375 -24.9375 C 3.09375 -26 3.070312 -27.003906 3.03125 -27.953125 C 2.988281 -28.898438 2.910156 -29.816406 2.796875 -30.703125 Z M 5.109375 -30.703125 "/>
            </g>
        </g>
    </g>
    <g fill="#000000" fill-opacity="1">
        <g transform="translate(166.793226, 197.744973)">
            <g>
                <path d="M 5.109375 -6.40625 C 4.765625 -6.863281 4.425781 -7.425781 4.09375 -8.09375 C 3.769531 -8.769531 3.484375 -9.503906 3.234375 -10.296875 C 2.992188 -11.085938 2.800781 -11.90625 2.65625 -12.75 C 2.519531 -13.59375 2.453125 -14.429688 2.453125 -15.265625 C 2.453125 -16.898438 2.703125 -18.535156 3.203125 -20.171875 C 3.703125 -21.804688 4.335938 -23.195312 5.109375 -24.34375 Z M 6.578125 -26.265625 C 7.785156 -27.503906 8.941406 -28.492188 10.046875 -29.234375 C 11.148438 -29.984375 12.472656 -30.601562 14.015625 -31.09375 C 15.648438 -31.570312 17.398438 -31.8125 19.265625 -31.8125 C 21.960938 -31.8125 24.367188 -31.289062 26.484375 -30.25 C 28.609375 -29.207031 30.441406 -27.867188 31.984375 -26.234375 C 32.734375 -25.398438 33.109375 -24.796875 33.109375 -24.421875 C 33.109375 -24.222656 32.976562 -24.023438 32.71875 -23.828125 C 32.40625 -23.535156 32.078125 -23.390625 31.734375 -23.390625 C 31.535156 -23.390625 31.367188 -23.445312 31.234375 -23.5625 C 31.109375 -23.675781 30.914062 -23.976562 30.65625 -24.46875 C 30.3125 -25.125 29.664062 -25.867188 28.71875 -26.703125 C 27.488281 -27.765625 26.054688 -28.597656 24.421875 -29.203125 C 22.785156 -29.773438 21.023438 -30.0625 19.140625 -30.0625 C 18.160156 -30.0625 17.484375 -29.929688 17.109375 -29.671875 C 16.878906 -29.492188 16.765625 -29.164062 16.765625 -28.6875 L 16.765625 -2.234375 C 16.765625 -1.773438 16.8125 -1.488281 16.90625 -1.375 C 17.039062 -1.144531 17.25 -0.976562 17.53125 -0.875 C 17.820312 -0.78125 18.398438 -0.734375 19.265625 -0.734375 C 20.328125 -0.734375 21.585938 -0.921875 23.046875 -1.296875 C 24.503906 -1.640625 25.910156 -2.238281 27.265625 -3.09375 C 27.921875 -3.519531 28.535156 -3.984375 29.109375 -4.484375 C 29.679688 -4.992188 30.195312 -5.535156 30.65625 -6.109375 C 31.65625 -7.285156 32.390625 -8.472656 32.859375 -9.671875 C 33.367188 -10.910156 33.753906 -12.359375 34.015625 -14.015625 L 22.234375 -14.015625 C 22.171875 -14.015625 21.992188 -14.003906 21.703125 -13.984375 C 21.421875 -13.972656 21.035156 -13.957031 20.546875 -13.9375 L 19.90625 -13.9375 C 19.53125 -13.9375 19.28125 -14 19.15625 -14.125 C 19.03125 -14.25 18.96875 -14.5 18.96875 -14.875 C 18.96875 -15.445312 19.207031 -15.734375 19.6875 -15.734375 L 20.203125 -15.734375 C 20.378906 -15.734375 20.59375 -15.722656 20.84375 -15.703125 C 21.101562 -15.691406 21.410156 -15.6875 21.765625 -15.6875 L 35.171875 -15.6875 C 35.546875 -15.6875 35.769531 -15.644531 35.84375 -15.5625 C 35.914062 -15.476562 35.953125 -15.320312 35.953125 -15.09375 C 35.953125 -12.425781 35.21875 -9.789062 33.75 -7.1875 C 32.34375 -4.570312 30.28125 -2.535156 27.5625 -1.078125 C 24.863281 0.359375 22.023438 1.078125 19.046875 1.078125 C 16.640625 1.078125 14.375 0.613281 12.25 -0.3125 C 10.132812 -1.25 8.242188 -2.617188 6.578125 -4.421875 Z M 6.578125 -26.265625 "/>
            </g>
        </g>
    </g>
    <g fill="#000000" fill-opacity="1">
        <g transform="translate(205.016822, 197.744973)">
            <g>
                <path d="M 16.765625 -1.671875 L 18.875 -1.671875 C 20.3125 -1.671875 21.414062 -1.71875 22.1875 -1.8125 C 23.394531 -1.925781 24.425781 -2.164062 25.28125 -2.53125 C 26.539062 -3.019531 27.519531 -3.757812 28.21875 -4.75 C 28.925781 -5.738281 29.28125 -6.820312 29.28125 -8 C 29.28125 -8.96875 29.007812 -9.867188 28.46875 -10.703125 C 27.925781 -11.535156 27.078125 -12.210938 25.921875 -12.734375 C 25.066406 -12.503906 24.378906 -12.390625 23.859375 -12.390625 C 22.546875 -12.390625 21.472656 -12.675781 20.640625 -13.25 C 20.210938 -13.53125 20 -14.03125 20 -14.75 C 20 -15.238281 20.15625 -15.484375 20.46875 -15.484375 C 20.550781 -15.484375 20.75 -15.394531 21.0625 -15.21875 C 21.726562 -14.789062 22.316406 -14.5 22.828125 -14.34375 C 23.347656 -14.1875 23.894531 -14.109375 24.46875 -14.109375 C 26.132812 -14.109375 27.539062 -14.722656 28.6875 -15.953125 C 29.851562 -17.210938 30.4375 -18.816406 30.4375 -20.765625 C 30.4375 -23.171875 29.507812 -25.175781 27.65625 -26.78125 C 25.789062 -28.394531 22.878906 -29.203125 18.921875 -29.203125 C 18.515625 -29.203125 18.132812 -29.191406 17.78125 -29.171875 C 17.425781 -29.160156 17.085938 -29.140625 16.765625 -29.109375 Z M 6.578125 -30.703125 L 20.03125 -30.703125 C 21.957031 -30.703125 23.335938 -30.601562 24.171875 -30.40625 C 25.285156 -30.144531 26.34375 -29.738281 27.34375 -29.1875 C 28.351562 -28.644531 29.234375 -27.957031 29.984375 -27.125 C 30.742188 -26.300781 31.335938 -25.347656 31.765625 -24.265625 C 32.203125 -23.191406 32.421875 -22.007812 32.421875 -20.71875 C 32.421875 -19.09375 32.039062 -17.632812 31.28125 -16.34375 C 30.519531 -15.050781 29.367188 -14.078125 27.828125 -13.421875 C 28.878906 -12.847656 29.691406 -12.078125 30.265625 -11.109375 C 30.835938 -10.148438 31.125 -9.070312 31.125 -7.875 C 31.125 -6.8125 30.921875 -5.867188 30.515625 -5.046875 C 30.117188 -4.234375 29.625 -3.507812 29.03125 -2.875 C 28.707031 -2.5625 28.390625 -2.28125 28.078125 -2.03125 C 27.765625 -1.789062 27.421875 -1.570312 27.046875 -1.375 C 26.328125 -0.976562 25.394531 -0.648438 24.25 -0.390625 C 23.070312 -0.128906 21.253906 0 18.796875 0 L 6.578125 0 Z M 5.109375 -30.703125 L 5.109375 0 L 2.796875 0 C 2.910156 -0.882812 2.988281 -1.804688 3.03125 -2.765625 C 3.070312 -3.734375 3.09375 -4.75 3.09375 -5.8125 L 3.09375 -24.9375 C 3.09375 -26 3.070312 -27.003906 3.03125 -27.953125 C 2.988281 -28.898438 2.910156 -29.816406 2.796875 -30.703125 Z M 5.109375 -30.703125 "/>
            </g>
        </g>
    </g>
    <g fill="#000000" fill-opacity="1">
        <g transform="translate(143.847651, 216.494971)">
            <g>
                <path d="M 4.9375 -12.859375 L 12.578125 -12.859375 C 12.859375 -12.859375 13.019531 -12.832031 13.0625 -12.78125 C 13.132812 -12.707031 13.171875 -12.582031 13.171875 -12.40625 C 13.171875 -12.164062 13.09375 -12.046875 12.9375 -12.046875 C 12.90625 -12.054688 12.863281 -12.0625 12.8125 -12.0625 C 12.769531 -12.0625 12.710938 -12.0625 12.640625 -12.0625 C 12.578125 -12.0625 12.503906 -12.066406 12.421875 -12.078125 C 12.085938 -12.097656 11.664062 -12.117188 11.15625 -12.140625 C 10.644531 -12.160156 10.03125 -12.171875 9.3125 -12.171875 C 9.28125 -11.554688 9.253906 -11.078125 9.234375 -10.734375 C 9.222656 -10.398438 9.21875 -10.203125 9.21875 -10.140625 L 9.21875 -2.703125 L 9.265625 -1.453125 C 9.273438 -1.109375 9.285156 -0.8125 9.296875 -0.5625 C 9.316406 -0.320312 9.335938 -0.132812 9.359375 0 L 4.9375 0 Z M 4.34375 -12.859375 L 4.34375 0 L 3.34375 0 C 3.394531 -0.375 3.425781 -0.757812 3.4375 -1.15625 C 3.457031 -1.5625 3.46875 -1.988281 3.46875 -2.4375 L 3.46875 -10.4375 C 3.46875 -10.988281 3.453125 -11.566406 3.421875 -12.171875 C 2.617188 -12.171875 1.957031 -12.160156 1.4375 -12.140625 C 0.925781 -12.117188 0.550781 -12.097656 0.3125 -12.078125 C 0.207031 -12.066406 0.117188 -12.054688 0.046875 -12.046875 C -0.015625 -12.046875 -0.0703125 -12.046875 -0.125 -12.046875 C -0.207031 -12.046875 -0.265625 -12.066406 -0.296875 -12.109375 C -0.335938 -12.160156 -0.359375 -12.273438 -0.359375 -12.453125 C -0.359375 -12.597656 -0.320312 -12.703125 -0.25 -12.765625 C -0.1875 -12.828125 -0.0976562 -12.859375 0.015625 -12.859375 Z M 4.34375 -12.859375 "/>
            </g>
        </g>
    </g>
    <g fill="#000000" fill-opacity="1">
        <g transform="translate(156.519613, 216.494971)">
            <g>
                <path d="M 2.359375 0 L 2.359375 -12.859375 L 5.9375 -12.859375 C 5.894531 -12.335938 5.863281 -11.828125 5.84375 -11.328125 C 5.820312 -10.828125 5.804688 -10.328125 5.796875 -9.828125 C 6.046875 -9.878906 6.457031 -9.953125 7.03125 -10.046875 C 7.582031 -10.117188 8.070312 -10.15625 8.5 -10.15625 C 8.988281 -10.15625 9.398438 -10.101562 9.734375 -10 C 10.066406 -9.90625 10.335938 -9.773438 10.546875 -9.609375 C 10.765625 -9.441406 10.929688 -9.253906 11.046875 -9.046875 C 11.171875 -8.847656 11.265625 -8.640625 11.328125 -8.421875 C 11.398438 -8.035156 11.4375 -7.460938 11.4375 -6.703125 L 11.4375 -2.328125 C 11.4375 -2.222656 11.4375 -2.085938 11.4375 -1.921875 C 11.445312 -1.765625 11.457031 -1.570312 11.46875 -1.34375 C 11.5 -0.695312 11.515625 -0.359375 11.515625 -0.328125 C 11.515625 0.015625 11.359375 0.1875 11.046875 0.1875 C 10.703125 0.1875 10.53125 0.015625 10.53125 -0.328125 C 10.53125 -0.398438 10.546875 -0.554688 10.578125 -0.796875 C 10.617188 -1.085938 10.640625 -1.585938 10.640625 -2.296875 L 10.640625 -6.84375 C 10.640625 -7.382812 10.617188 -7.753906 10.578125 -7.953125 C 10.546875 -8.179688 10.484375 -8.382812 10.390625 -8.5625 C 10.304688 -8.75 10.175781 -8.90625 10 -9.03125 C 9.832031 -9.15625 9.609375 -9.242188 9.328125 -9.296875 C 9.054688 -9.359375 8.710938 -9.390625 8.296875 -9.390625 C 8.128906 -9.390625 7.9375 -9.378906 7.71875 -9.359375 C 7.5 -9.347656 7.269531 -9.332031 7.03125 -9.3125 C 6.789062 -9.269531 6.566406 -9.226562 6.359375 -9.1875 C 6.148438 -9.15625 5.960938 -9.117188 5.796875 -9.078125 L 5.796875 -2.921875 C 5.796875 -2.378906 5.800781 -1.867188 5.8125 -1.390625 C 5.832031 -0.910156 5.867188 -0.445312 5.921875 0 Z M 1.75 0 L 0.84375 0 C 0.90625 -0.488281 0.941406 -1.050781 0.953125 -1.6875 C 0.992188 -2.332031 1.015625 -2.742188 1.015625 -2.921875 L 1.015625 -9.84375 C 1.015625 -9.925781 1.003906 -10.101562 0.984375 -10.375 C 0.972656 -10.644531 0.957031 -11.019531 0.9375 -11.5 C 0.925781 -11.851562 0.910156 -12.140625 0.890625 -12.359375 C 0.878906 -12.585938 0.867188 -12.753906 0.859375 -12.859375 L 1.75 -12.859375 Z M 1.75 0 "/>
            </g>
        </g>
    </g>
    <g fill="#000000" fill-opacity="1">
        <g transform="translate(168.84958, 216.494971)">
            <g>
                <path d="M 1.21875 -2.21875 C 0.707031 -3.050781 0.453125 -3.960938 0.453125 -4.953125 C 0.453125 -5.941406 0.707031 -6.847656 1.21875 -7.671875 Z M 5.28125 -5.421875 L 10.1875 -5.421875 C 10.09375 -6.035156 9.945312 -6.554688 9.75 -6.984375 C 9.613281 -7.285156 9.414062 -7.582031 9.15625 -7.875 C 8.894531 -8.175781 8.59375 -8.441406 8.25 -8.671875 C 7.90625 -8.910156 7.53125 -9.101562 7.125 -9.25 C 6.726562 -9.394531 6.3125 -9.46875 5.875 -9.46875 C 5.800781 -9.46875 5.710938 -9.460938 5.609375 -9.453125 C 5.515625 -9.453125 5.40625 -9.445312 5.28125 -9.4375 Z M 1.84375 -8.484375 C 2.34375 -9.015625 2.925781 -9.425781 3.59375 -9.71875 C 4.257812 -10.019531 4.96875 -10.171875 5.71875 -10.171875 C 6.375 -10.171875 6.976562 -10.066406 7.53125 -9.859375 C 8.09375 -9.648438 8.59375 -9.359375 9.03125 -8.984375 C 9.476562 -8.609375 9.851562 -8.175781 10.15625 -7.6875 C 10.46875 -7.195312 10.6875 -6.671875 10.8125 -6.109375 C 10.882812 -5.753906 10.921875 -5.296875 10.921875 -4.734375 L 5.28125 -4.734375 L 5.28125 -0.453125 C 5.34375 -0.441406 5.398438 -0.4375 5.453125 -0.4375 C 5.515625 -0.4375 5.566406 -0.4375 5.609375 -0.4375 C 5.835938 -0.4375 6.097656 -0.460938 6.390625 -0.515625 C 6.691406 -0.566406 6.984375 -0.644531 7.265625 -0.75 C 7.554688 -0.851562 7.828125 -0.976562 8.078125 -1.125 C 8.328125 -1.269531 8.539062 -1.4375 8.71875 -1.625 C 8.875 -1.78125 9.0625 -2.03125 9.28125 -2.375 C 9.4375 -2.601562 9.550781 -2.753906 9.625 -2.828125 C 9.726562 -2.890625 9.828125 -2.921875 9.921875 -2.921875 C 10.066406 -2.921875 10.195312 -2.867188 10.3125 -2.765625 C 10.4375 -2.660156 10.5 -2.550781 10.5 -2.4375 C 10.5 -2.0625 10.070312 -1.554688 9.21875 -0.921875 C 8.144531 -0.128906 6.941406 0.265625 5.609375 0.265625 C 4.972656 0.265625 4.410156 0.171875 3.921875 -0.015625 C 3.429688 -0.210938 2.957031 -0.476562 2.5 -0.8125 C 2.3125 -0.957031 2.09375 -1.160156 1.84375 -1.421875 Z M 1.84375 -8.484375 "/>
            </g>
        </g>
    </g>
    <g fill="#000000" fill-opacity="1">
        <g transform="translate(180.171551, 216.494971)">
            <g>
                <path d="M 7.84375 0 L 7.84375 -10.171875 C 8.507812 -10.085938 9.070312 -9.945312 9.53125 -9.75 C 9.988281 -9.550781 10.375 -9.285156 10.6875 -8.953125 C 10.90625 -8.710938 11.066406 -8.410156 11.171875 -8.046875 C 11.234375 -7.785156 11.265625 -7.421875 11.265625 -6.953125 L 11.265625 -2.25 C 11.265625 -1.476562 11.351562 -0.726562 11.53125 0 Z M 6.515625 -6.890625 C 6.410156 -6.898438 6.304688 -6.910156 6.203125 -6.921875 C 6.097656 -6.929688 6 -6.9375 5.90625 -6.9375 C 5 -6.9375 4.28125 -6.835938 3.75 -6.640625 C 3.375 -6.523438 2.992188 -6.320312 2.609375 -6.03125 C 2.234375 -5.75 1.9375 -5.414062 1.71875 -5.03125 C 1.507812 -4.644531 1.40625 -4.179688 1.40625 -3.640625 C 1.40625 -3.128906 1.503906 -2.695312 1.703125 -2.34375 C 1.910156 -1.988281 2.179688 -1.664062 2.515625 -1.375 C 2.859375 -1.082031 3.253906 -0.859375 3.703125 -0.703125 C 4.160156 -0.546875 4.675781 -0.46875 5.25 -0.46875 C 5.632812 -0.46875 6.054688 -0.519531 6.515625 -0.625 Z M 7.25 -0.03125 C 6.769531 0.0507812 6.347656 0.113281 5.984375 0.15625 C 5.628906 0.195312 5.328125 0.21875 5.078125 0.21875 C 4.441406 0.226562 3.847656 0.128906 3.296875 -0.078125 C 2.742188 -0.296875 2.269531 -0.585938 1.875 -0.953125 C 1.476562 -1.328125 1.171875 -1.753906 0.953125 -2.234375 C 0.734375 -2.710938 0.640625 -3.21875 0.671875 -3.75 C 0.671875 -4.550781 0.894531 -5.25 1.34375 -5.84375 C 1.800781 -6.445312 2.46875 -6.90625 3.34375 -7.21875 C 4.0625 -7.457031 4.773438 -7.578125 5.484375 -7.578125 L 6.515625 -7.5625 C 6.515625 -8.269531 6.5 -8.707031 6.46875 -8.875 C 6.414062 -9.039062 6.320312 -9.171875 6.1875 -9.265625 C 5.976562 -9.410156 5.664062 -9.484375 5.25 -9.484375 C 4.832031 -9.484375 4.441406 -9.425781 4.078125 -9.3125 C 3.710938 -9.207031 3.382812 -9.070312 3.09375 -8.90625 C 3.019531 -8.875 2.9375 -8.816406 2.84375 -8.734375 C 2.757812 -8.648438 2.671875 -8.566406 2.578125 -8.484375 C 2.484375 -8.398438 2.390625 -8.316406 2.296875 -8.234375 C 2.203125 -8.160156 2.125 -8.101562 2.0625 -8.0625 C 1.945312 -8 1.851562 -7.96875 1.78125 -7.96875 C 1.644531 -7.96875 1.523438 -8.019531 1.421875 -8.125 C 1.328125 -8.226562 1.28125 -8.347656 1.28125 -8.484375 C 1.28125 -8.765625 1.53125 -9.050781 2.03125 -9.34375 C 3.132812 -9.9375 4.570312 -10.234375 6.34375 -10.234375 C 6.507812 -10.234375 6.671875 -10.226562 6.828125 -10.21875 C 6.984375 -10.21875 7.125 -10.210938 7.25 -10.203125 Z M 7.25 -0.03125 "/>
            </g>
        </g>
    </g>
    <g fill="#000000" fill-opacity="1">
        <g transform="translate(192.501518, 216.494971)">
            <g>
                <path d="M 1.375 -10.015625 L 1.375 -10.8125 L 2.125 -11.140625 L 2.125 -0.796875 C 1.957031 -0.953125 1.8125 -1.179688 1.6875 -1.484375 C 1.5625 -1.785156 1.472656 -2.101562 1.421875 -2.4375 C 1.390625 -2.769531 1.375 -3.375 1.375 -4.25 L 1.375 -9.359375 L 0.859375 -9.359375 C 0.804688 -9.359375 0.734375 -9.351562 0.640625 -9.34375 C 0.554688 -9.34375 0.46875 -9.335938 0.375 -9.328125 L 0.1875 -9.328125 C 0.0625 -9.328125 -0.0351562 -9.359375 -0.109375 -9.421875 C -0.191406 -9.484375 -0.234375 -9.570312 -0.234375 -9.6875 C -0.234375 -9.789062 -0.191406 -9.878906 -0.109375 -9.953125 C -0.0351562 -10.023438 0.0625 -10.0625 0.1875 -10.0625 L 0.34375 -10.0625 L 0.71875 -10.046875 Z M 2.71875 -11.4375 L 6.359375 -13.125 C 6.304688 -12.507812 6.265625 -11.941406 6.234375 -11.421875 C 6.203125 -10.910156 6.179688 -10.425781 6.171875 -9.96875 L 7.859375 -10.046875 C 8.054688 -10.046875 8.1875 -10.015625 8.25 -9.953125 C 8.320312 -9.898438 8.359375 -9.820312 8.359375 -9.71875 C 8.359375 -9.5625 8.3125 -9.445312 8.21875 -9.375 C 8.132812 -9.3125 7.972656 -9.28125 7.734375 -9.28125 L 6.171875 -9.359375 L 6.171875 -3.1875 C 6.171875 -2.175781 6.234375 -1.554688 6.359375 -1.328125 C 6.460938 -1.085938 6.660156 -0.96875 6.953125 -0.96875 C 7.140625 -0.96875 7.3125 -1.007812 7.46875 -1.09375 C 7.625 -1.1875 7.789062 -1.335938 7.96875 -1.546875 C 8.15625 -1.773438 8.285156 -1.960938 8.359375 -2.109375 C 8.472656 -2.367188 8.554688 -2.523438 8.609375 -2.578125 C 8.691406 -2.628906 8.78125 -2.65625 8.875 -2.65625 C 8.96875 -2.65625 9.050781 -2.625 9.125 -2.5625 C 9.195312 -2.5 9.234375 -2.410156 9.234375 -2.296875 C 9.234375 -2.023438 9.085938 -1.722656 8.796875 -1.390625 C 8.398438 -0.878906 7.863281 -0.472656 7.1875 -0.171875 C 6.507812 0.128906 5.769531 0.28125 4.96875 0.28125 C 4.09375 0.28125 3.34375 0.101562 2.71875 -0.25 Z M 2.71875 -11.4375 "/>
            </g>
        </g>
    </g>
    <g fill="#000000" fill-opacity="1">
        <g transform="translate(201.159487, 216.494971)">
            <g>
                <path d="M 1.21875 -2.21875 C 0.707031 -3.050781 0.453125 -3.960938 0.453125 -4.953125 C 0.453125 -5.941406 0.707031 -6.847656 1.21875 -7.671875 Z M 5.28125 -5.421875 L 10.1875 -5.421875 C 10.09375 -6.035156 9.945312 -6.554688 9.75 -6.984375 C 9.613281 -7.285156 9.414062 -7.582031 9.15625 -7.875 C 8.894531 -8.175781 8.59375 -8.441406 8.25 -8.671875 C 7.90625 -8.910156 7.53125 -9.101562 7.125 -9.25 C 6.726562 -9.394531 6.3125 -9.46875 5.875 -9.46875 C 5.800781 -9.46875 5.710938 -9.460938 5.609375 -9.453125 C 5.515625 -9.453125 5.40625 -9.445312 5.28125 -9.4375 Z M 1.84375 -8.484375 C 2.34375 -9.015625 2.925781 -9.425781 3.59375 -9.71875 C 4.257812 -10.019531 4.96875 -10.171875 5.71875 -10.171875 C 6.375 -10.171875 6.976562 -10.066406 7.53125 -9.859375 C 8.09375 -9.648438 8.59375 -9.359375 9.03125 -8.984375 C 9.476562 -8.609375 9.851562 -8.175781 10.15625 -7.6875 C 10.46875 -7.195312 10.6875 -6.671875 10.8125 -6.109375 C 10.882812 -5.753906 10.921875 -5.296875 10.921875 -4.734375 L 5.28125 -4.734375 L 5.28125 -0.453125 C 5.34375 -0.441406 5.398438 -0.4375 5.453125 -0.4375 C 5.515625 -0.4375 5.566406 -0.4375 5.609375 -0.4375 C 5.835938 -0.4375 6.097656 -0.460938 6.390625 -0.515625 C 6.691406 -0.566406 6.984375 -0.644531 7.265625 -0.75 C 7.554688 -0.851562 7.828125 -0.976562 8.078125 -1.125 C 8.328125 -1.269531 8.539062 -1.4375 8.71875 -1.625 C 8.875 -1.78125 9.0625 -2.03125 9.28125 -2.375 C 9.4375 -2.601562 9.550781 -2.753906 9.625 -2.828125 C 9.726562 -2.890625 9.828125 -2.921875 9.921875 -2.921875 C 10.066406 -2.921875 10.195312 -2.867188 10.3125 -2.765625 C 10.4375 -2.660156 10.5 -2.550781 10.5 -2.4375 C 10.5 -2.0625 10.070312 -1.554688 9.21875 -0.921875 C 8.144531 -0.128906 6.941406 0.265625 5.609375 0.265625 C 4.972656 0.265625 4.410156 0.171875 3.921875 -0.015625 C 3.429688 -0.210938 2.957031 -0.476562 2.5 -0.8125 C 2.3125 -0.957031 2.09375 -1.160156 1.84375 -1.421875 Z M 1.84375 -8.484375 "/>
            </g>
        </g>
    </g>
    <g fill="#000000" fill-opacity="1">
        <g transform="translate(212.481459, 216.494971)">
            <g>
                <path d="M 1.75 0 L 0.84375 0 C 0.90625 -0.488281 0.941406 -1.050781 0.953125 -1.6875 C 0.992188 -2.332031 1.015625 -2.742188 1.015625 -2.921875 L 1.015625 -6.828125 C 1.015625 -6.910156 1.003906 -7.085938 0.984375 -7.359375 C 0.972656 -7.640625 0.957031 -8.015625 0.9375 -8.484375 C 0.925781 -8.828125 0.910156 -9.113281 0.890625 -9.34375 C 0.878906 -9.570312 0.867188 -9.734375 0.859375 -9.828125 L 1.75 -9.828125 Z M 2.359375 0 L 2.359375 -9.828125 L 5.9375 -9.828125 C 5.894531 -9.328125 5.859375 -8.6875 5.828125 -7.90625 C 6.140625 -8.21875 6.40625 -8.484375 6.625 -8.703125 C 6.851562 -8.921875 7.046875 -9.097656 7.203125 -9.234375 C 7.503906 -9.484375 7.832031 -9.679688 8.1875 -9.828125 C 8.550781 -9.984375 8.925781 -10.0625 9.3125 -10.0625 C 9.625 -10.0625 9.867188 -9.976562 10.046875 -9.8125 C 10.234375 -9.644531 10.328125 -9.453125 10.328125 -9.234375 C 10.328125 -9.046875 10.269531 -8.890625 10.15625 -8.765625 C 10.039062 -8.648438 9.890625 -8.59375 9.703125 -8.59375 C 9.503906 -8.59375 9.28125 -8.648438 9.03125 -8.765625 C 8.820312 -8.859375 8.65625 -8.90625 8.53125 -8.90625 C 8.164062 -8.90625 7.800781 -8.742188 7.4375 -8.421875 C 6.820312 -7.941406 6.273438 -7.351562 5.796875 -6.65625 L 5.796875 -2.921875 C 5.796875 -2.378906 5.800781 -1.867188 5.8125 -1.390625 C 5.832031 -0.910156 5.867188 -0.445312 5.921875 0 Z M 2.359375 0 "/>
            </g>
        </g>
    </g>
    <g fill="#000000" fill-opacity="1">
        <g transform="translate(222.147424, 216.494971)">
            <g>
                <path d="M 0.84375 -7.890625 C 0.84375 -7.515625 0.984375 -7.082031 1.265625 -6.59375 C 1.648438 -5.90625 2.140625 -5.207031 2.734375 -4.5 L 4.484375 -2.5 C 5.171875 -1.707031 5.515625 -1.070312 5.515625 -0.59375 C 5.515625 -0.300781 5.425781 -0.0820312 5.25 0.0625 C 5.070312 0.207031 4.769531 0.28125 4.34375 0.28125 C 3.769531 0.28125 3.144531 0.179688 2.46875 -0.015625 C 2.09375 -0.140625 1.710938 -0.3125 1.328125 -0.53125 C 0.941406 -0.757812 0.671875 -0.972656 0.515625 -1.171875 C 0.441406 -1.253906 0.40625 -1.363281 0.40625 -1.5 C 0.40625 -1.601562 0.445312 -1.691406 0.53125 -1.765625 C 0.625 -1.847656 0.722656 -1.890625 0.828125 -1.890625 C 0.910156 -1.890625 0.992188 -1.863281 1.078125 -1.8125 C 1.128906 -1.789062 1.207031 -1.738281 1.3125 -1.65625 C 1.414062 -1.570312 1.554688 -1.453125 1.734375 -1.296875 C 2.472656 -0.679688 3.289062 -0.375 4.1875 -0.375 C 4.394531 -0.375 4.539062 -0.410156 4.625 -0.484375 C 4.71875 -0.554688 4.765625 -0.640625 4.765625 -0.734375 C 4.765625 -0.796875 4.738281 -0.875 4.6875 -0.96875 C 4.613281 -1.101562 4.40625 -1.378906 4.0625 -1.796875 L 1.5625 -4.90625 C 1.238281 -5.320312 1.019531 -5.675781 0.90625 -5.96875 C 0.75 -6.332031 0.671875 -6.722656 0.671875 -7.140625 C 0.671875 -7.441406 0.726562 -7.753906 0.84375 -8.078125 Z M 5.875 0.140625 C 6.03125 -0.015625 6.109375 -0.269531 6.109375 -0.625 C 6.109375 -0.976562 6.007812 -1.328125 5.8125 -1.671875 C 5.644531 -2.003906 5.238281 -2.515625 4.59375 -3.203125 C 3.90625 -3.921875 3.335938 -4.554688 2.890625 -5.109375 C 2.453125 -5.660156 2.117188 -6.128906 1.890625 -6.515625 C 1.546875 -7.140625 1.375 -7.703125 1.375 -8.203125 C 1.375 -8.828125 1.679688 -9.3125 2.296875 -9.65625 C 2.910156 -10.007812 3.753906 -10.1875 4.828125 -10.1875 C 5.578125 -10.1875 6.25 -10.085938 6.84375 -9.890625 C 7.4375 -9.691406 7.867188 -9.476562 8.140625 -9.25 C 8.285156 -9.113281 8.359375 -8.988281 8.359375 -8.875 C 8.359375 -8.75 8.3125 -8.644531 8.21875 -8.5625 C 8.15625 -8.488281 8.066406 -8.453125 7.953125 -8.453125 C 7.847656 -8.453125 7.757812 -8.472656 7.6875 -8.515625 C 7.550781 -8.566406 7.28125 -8.726562 6.875 -9 C 6.613281 -9.164062 6.335938 -9.296875 6.046875 -9.390625 C 5.753906 -9.492188 5.503906 -9.546875 5.296875 -9.546875 C 5.085938 -9.546875 4.914062 -9.488281 4.78125 -9.375 C 4.65625 -9.257812 4.59375 -9.128906 4.59375 -8.984375 C 4.59375 -8.828125 4.648438 -8.648438 4.765625 -8.453125 C 4.859375 -8.285156 5.019531 -8.066406 5.25 -7.796875 C 5.488281 -7.523438 5.789062 -7.203125 6.15625 -6.828125 C 7.019531 -5.921875 7.5625 -5.328125 7.78125 -5.046875 C 8.132812 -4.578125 8.378906 -4.175781 8.515625 -3.84375 C 8.648438 -3.507812 8.71875 -3.144531 8.71875 -2.75 C 8.71875 -2.019531 8.507812 -1.445312 8.09375 -1.03125 C 7.570312 -0.445312 6.832031 -0.0546875 5.875 0.140625 Z M 5.875 0.140625 "/>
            </g>
        </g>
    </g>
</svg>